<svg xmlns="http://www.w3.org/2000/svg" xmlns:xlink="http://www.w3.org/1999/xlink" id="Layer_1" x="0" y="0" version="1.1" viewBox="0 0 372.6 65.6" xml:space="preserve" style="enable-background:new 0 0 372.6 65.6"><style type="text/css">.st0{fill:#1b95d2}.st0,.st1{display:none}.st2{display:inline;fill:#86bc44}.st3{fill:#dc392d}.st4{fill:#373737}</style><rect id="XMLID_81_" width="55.6" height="53.3" x="6.6" y="6.7" class="st0"/><g id="XMLID_1_" class="st1"><polygon id="XMLID_23_" points="6.6 59.8 8.5 57.4 11.8 57.4 9.8 60 6.6 60" class="st2"/><rect id="XMLID_24_" width="6.5" height="2.6" x="19.7" y="43.3" class="st2"/><polygon id="XMLID_25_" points="19.7 43.3 21.7 44.9 11.8 57.4 8.5 57.4" class="st2"/><polygon id="XMLID_26_" points="34.4 57.4 34.4 60 9.8 60 11.8 57.4" class="st2"/><circle id="XMLID_27_" cx="26.2" cy="44.6" r="1.3" class="st2"/><polygon id="XMLID_32_" points="62.2 59.8 60.3 57.4 57.1 57.4 59.1 60 62.2 60" class="st2"/><rect id="XMLID_33_" width="6.5" height="2.6" x="42.6" y="43.3" class="st2"/><polygon id="XMLID_34_" points="49.2 43.3 47.1 44.9 57.1 57.4 60.3 57.4" class="st2"/><polygon id="XMLID_35_" points="34.4 57.4 34.4 60 59.1 60 57.1 57.4" class="st2"/><circle id="XMLID_36_" cx="42.6" cy="44.6" r="1.3" class="st2"/></g><g id="XMLID_82_"><circle id="XMLID_28_" cx="31.4" cy="24.2" r="6.4" class="st3"/><path id="XMLID_29_" d="M31.4,59.4c3.7-4.8,12.4-19.8,14.8-26c1-2.6,2.1-5.2,2.4-8C49.5,16.7,43.7,9,35.4,7 c-0.7-0.2-1.3-0.3-2-0.5c-1.2,0-2.3,0-3.5,0c-0.3,0.1-0.5,0.2-0.8,0.3C18.5,8.4,11.8,19.7,15.4,29.5C19.2,40.4,25.4,49.8,31.4,59.4 z M22.8,24c0.2-5,4.2-8.7,9.2-8.6c4.5,0.2,8.4,4.4,8.2,9c-0.2,4.9-4.2,8.7-8.8,8.6C26.4,33,22.6,28.8,22.8,24z" class="st3"/></g><g id="XMLID_125_"><path id="XMLID_126_" d="M101.5,23.5c0,3.1-0.6,5.7-1.6,7.8c-1.1,2.1-2.6,3.8-4.4,5.1c-1.8,1.3-4,2.2-6.4,2.7 c-2.4,0.5-5,0.8-7.7,0.8c-0.9,0-2,0-3.2-0.1c-1.2-0.1-2.2-0.1-3-0.2V58c0,0.4-0.1,0.7-0.4,1c-0.3,0.3-0.6,0.4-0.9,0.4h-7 c-0.4,0-0.7-0.1-1-0.4c-0.3-0.3-0.4-0.6-0.4-1V9.7c0-0.7,0.2-1.2,0.6-1.5c0.4-0.3,0.9-0.5,1.6-0.6c1.8-0.3,3.9-0.5,6.3-0.7 c2.4-0.2,4.9-0.2,7.4-0.2C84,6.7,86.6,7,89,7.5c2.4,0.5,4.6,1.4,6.4,2.7c1.8,1.3,3.3,2.9,4.4,5c1.1,2.1,1.6,4.7,1.6,7.7V23.5z M91.8,22.9c0-3-0.9-5.1-2.6-6.3c-1.7-1.2-4.4-1.9-7.9-1.9c-0.4,0-0.9,0-1.4,0c-0.6,0-1.2,0-1.8,0.1c-0.6,0-1.2,0-1.7,0.1 c-0.5,0-1,0.1-1.3,0.1v16.8c0.3,0,0.7,0,1.3,0c0.6,0,1.2,0,1.8,0.1c0.6,0,1.2,0,1.8,0.1c0.6,0,1,0,1.3,0c3.8,0,6.5-0.7,8.1-2.1 c1.6-1.4,2.4-3.5,2.4-6.3V22.9z" class="st4"/><path id="XMLID_131_" d="M118.1,57.9c0,0.4-0.1,0.7-0.4,1c-0.3,0.3-0.6,0.5-0.9,0.5h-6.5c-0.4,0-0.7-0.2-1-0.5 c-0.3-0.3-0.4-0.6-0.4-1V7.4c0-0.4,0.1-0.7,0.4-1c0.3-0.3,0.6-0.4,1-0.4h6.5c0.4,0,0.7,0.1,0.9,0.4c0.3,0.3,0.4,0.6,0.4,1V57.9z" class="st4"/><path id="XMLID_133_" d="M159,56.2c0,0.5-0.1,0.9-0.4,1.2c-0.2,0.3-0.7,0.5-1.5,0.7c-2.2,0.6-4.5,1-7,1.3 c-2.5,0.3-4.8,0.5-7.1,0.5c-5.7,0-9.9-1.6-12.6-4.7c-2.8-3.1-4.1-7.4-4.1-12.9v-5.4c0-5.5,1.4-9.8,4.1-12.9c2.8-3.1,7-4.7,12.6-4.7 c2.2,0,4.6,0.2,7.1,0.5c2.5,0.3,4.8,0.8,7,1.3c0.8,0.2,1.3,0.5,1.5,0.7c0.2,0.3,0.4,0.6,0.4,1.2V56.2z M149.7,27.4 c-0.7-0.1-1.6-0.3-2.9-0.4c-1.3-0.1-2.6-0.1-3.8-0.1c-1.5,0-2.7,0.3-3.7,0.8c-1,0.5-1.8,1.2-2.3,2.1c-0.6,0.9-0.9,1.9-1.2,3.2 c-0.2,1.2-0.3,2.5-0.3,4v5.4c0,1.4,0.1,2.8,0.3,4c0.2,1.2,0.6,2.3,1.2,3.2c0.6,0.9,1.3,1.6,2.3,2.1c1,0.5,2.2,0.8,3.7,0.8 c1.3,0,2.5,0,3.8-0.1c1.3-0.1,2.3-0.2,2.9-0.4V27.4z" class="st4"/><path id="XMLID_136_" d="M193.2,57.2c0,0.6-0.1,1-0.3,1.2c-0.2,0.3-0.6,0.5-1.2,0.6c-0.8,0.2-2,0.4-3.5,0.6 c-1.5,0.2-3.4,0.3-5.5,0.3c-2.3,0-4.4-0.4-6.3-1.1c-1.9-0.7-3.6-1.8-5-3.2c-1.4-1.4-2.5-3.2-3.4-5.3c-0.8-2.1-1.2-4.6-1.2-7.5v-6.5 c0-2.9,0.4-5.3,1.2-7.5c0.8-2.1,1.9-3.9,3.4-5.3c1.4-1.4,3.1-2.5,5-3.2c1.9-0.7,4.1-1.1,6.3-1.1c2.1,0,4,0.1,5.5,0.3 c1.5,0.2,2.7,0.4,3.5,0.6c0.6,0.1,1,0.3,1.2,0.6c0.2,0.3,0.3,0.7,0.3,1.2v4.6c0,0.4-0.1,0.6-0.4,0.8c-0.2,0.2-0.5,0.2-0.9,0.2h-0.2 c-0.7-0.1-1.4-0.2-2-0.2c-0.6-0.1-1.2-0.1-1.9-0.1c-0.7,0-1.4,0-2.2-0.1c-0.8,0-1.8,0-2.9,0c-0.8,0-1.7,0.1-2.5,0.4 c-0.8,0.3-1.5,0.8-2.1,1.4c-0.6,0.7-1.1,1.6-1.5,2.8c-0.4,1.2-0.6,2.7-0.6,4.5v6.5c0,1.8,0.2,3.3,0.6,4.5c0.4,1.2,0.9,2.1,1.5,2.8 c0.6,0.7,1.3,1.2,2.1,1.4c0.8,0.3,1.6,0.4,2.5,0.4c1.1,0,2.1,0,2.9,0c0.8,0,1.6,0,2.2-0.1c0.7,0,1.3-0.1,1.9-0.1s1.3-0.2,2-0.2h0.2 c0.4,0,0.7,0.1,0.9,0.2c0.2,0.2,0.4,0.4,0.4,0.8V57.2z" class="st4"/><path id="XMLID_138_" d="M233.2,41.1c0,1.2-0.5,1.8-1.4,1.8h-22.9V43c0,1,0.1,2.1,0.4,3.1c0.2,1.1,0.7,2,1.3,2.9 c0.6,0.9,1.5,1.6,2.6,2.1c1.1,0.5,2.5,0.8,4.2,0.8c2.6,0,5-0.1,7.3-0.2c2.3-0.2,4.1-0.3,5.6-0.5h0.2c0.4,0,0.7,0.1,0.9,0.2 c0.2,0.2,0.4,0.4,0.4,0.8v4.6c0,0.6-0.1,1-0.2,1.3c-0.2,0.3-0.6,0.5-1.2,0.6c-1.1,0.2-2.2,0.4-3.2,0.6c-1,0.1-2,0.3-3,0.4 c-1,0.1-2.1,0.2-3.3,0.2c-1.2,0-2.6,0.1-4.2,0.1c-1.8,0-3.7-0.3-5.6-0.8c-2-0.5-3.8-1.5-5.5-2.8s-3.1-3.1-4.1-5.4 c-1.1-2.3-1.6-5.1-1.6-8.6v-5.2c0-2.7,0.4-5.2,1.1-7.4c0.7-2.2,1.8-4.1,3.3-5.6c1.4-1.5,3.2-2.7,5.3-3.6c2.1-0.8,4.5-1.3,7.2-1.3 c2.7,0,5.1,0.4,7.2,1.3c2.1,0.9,3.8,2.1,5.2,3.7c1.4,1.6,2.5,3.5,3.2,5.6c0.7,2.2,1.1,4.6,1.1,7.2V41.1z M224,36 c0-2.8-0.7-4.9-2.1-6.4c-1.4-1.5-3.2-2.2-5.4-2.2c-2.2,0-4,0.7-5.5,2.2c-1.4,1.5-2.1,3.6-2.1,6.4v0.3h15V36z" class="st4"/><path id="XMLID_141_" d="M275.2,19.5c0,2.9-0.7,5.5-2.2,7.5c-1.5,2.1-3.7,4.1-6.6,6.1l-6.3,4.2 c-3.3,2.2-5.8,4.3-7.5,6.3c-1.7,2-2.5,4.5-2.5,7.4v0.3h23.1c0.4,0,0.7,0.1,1,0.4c0.3,0.2,0.4,0.5,0.4,0.9V58c0,0.4-0.1,0.7-0.4,1 s-0.6,0.4-1,0.4h-29.7c-0.4,0-0.7-0.1-1-0.4c-0.3-0.3-0.4-0.6-0.4-1v-6.9c0-1.9,0.3-3.8,0.8-5.6c0.6-1.8,1.3-3.5,2.3-5.1 c1-1.6,2.1-3,3.4-4.3c1.3-1.3,2.7-2.5,4.1-3.4l6.9-4.6c1.4-0.9,2.5-1.7,3.3-2.3c0.8-0.7,1.5-1.3,2-1.9c0.5-0.6,0.8-1.2,0.9-1.9 c0.2-0.7,0.2-1.5,0.2-2.5c0-1.9-0.6-3.3-1.9-4c-1.3-0.8-3.4-1.2-6.3-1.2c-1,0-2.1,0-3.3,0.1c-1.2,0.1-2.4,0.2-3.6,0.2 c-1.2,0.1-2.5,0.2-3.7,0.3c-1.2,0.1-2.3,0.2-3.4,0.4h-0.1c-0.4,0-0.7-0.1-0.9-0.4c-0.2-0.3-0.4-0.6-0.4-1V9.8 c0-0.4,0.1-0.7,0.4-0.9c0.3-0.2,0.6-0.4,0.9-0.5c0.9-0.2,1.9-0.5,3.1-0.7c1.2-0.2,2.4-0.4,3.6-0.6c1.2-0.2,2.5-0.3,3.8-0.4 c1.3-0.1,2.5-0.1,3.6-0.1c6.1,0,10.5,1.1,13.2,3.2S275.2,15.2,275.2,19.5z" class="st4"/><path id="XMLID_143_" d="M320,57.1c0,0.9-0.4,1.5-1.3,1.7c-1.8,0.4-3.9,0.7-6.2,0.9c-2.4,0.2-5.4,0.3-9,0.3 c-1.9,0-4-0.4-6.1-1.1c-2.2-0.7-4.2-1.9-6.1-3.5c-1.9-1.6-3.5-3.8-4.7-6.6c-1.2-2.8-1.9-6.2-1.9-10.4V28.3c0-4.2,0.6-7.6,1.8-10.4 c1.2-2.8,2.7-5,4.6-6.6c1.9-1.7,3.9-2.8,6.1-3.5c2.2-0.7,4.4-1.1,6.5-1.1c1.7,0,3.3,0,4.9,0.1c1.6,0.1,3,0.2,4.3,0.4 c1.3,0.1,2.5,0.3,3.5,0.4c1,0.1,1.8,0.3,2.4,0.4c0.9,0.2,1.3,0.7,1.3,1.5v4.7c0,0.5-0.1,0.9-0.3,1.1c-0.2,0.2-0.6,0.4-1.1,0.4h-0.2 c-1.6-0.1-3.7-0.3-6.1-0.4c-2.4-0.1-5.3-0.2-8.7-0.2c-1.2,0-2.3,0.2-3.4,0.7c-1.1,0.4-2.1,1.2-3,2.2c-0.9,1-1.6,2.4-2.1,4.1 c-0.5,1.7-0.8,3.8-0.8,6.3v10.1c0,2.5,0.3,4.6,0.8,6.2c0.5,1.7,1.2,3,2.1,4.1c0.9,1,1.8,1.8,2.9,2.2c1.1,0.4,2.1,0.7,3.2,0.7 c1.3,0,2.5,0,3.6,0s2.2-0.1,3.3-0.2V33.5c0-0.4,0.1-0.7,0.4-1c0.3-0.3,0.6-0.4,1-0.4h7c0.4,0,0.7,0.1,1,0.4c0.3,0.3,0.4,0.6,0.4,1 V57.1z" class="st4"/><path id="XMLID_147_" d="M362.2,42.5c0,2.5-0.4,4.9-1.1,7c-0.7,2.1-1.8,4-3.2,5.5c-1.4,1.5-3.1,2.8-5.2,3.6 c-2.1,0.9-4.5,1.3-7.3,1.3s-5.2-0.4-7.3-1.3c-2.1-0.9-3.8-2.1-5.2-3.6s-2.5-3.4-3.2-5.5c-0.7-2.1-1.1-4.5-1.1-7v-5.7 c0-2.5,0.4-4.9,1.1-7c0.7-2.1,1.8-4,3.2-5.5s3.1-2.8,5.2-3.6c2.1-0.9,4.5-1.3,7.3-1.3s5.2,0.4,7.3,1.3c2.1,0.9,3.8,2.1,5.2,3.6 c1.4,1.5,2.5,3.4,3.2,5.5c0.7,2.1,1.1,4.5,1.1,7V42.5z M352.9,36.8c0-2.9-0.6-5.2-1.9-6.9c-1.3-1.7-3.1-2.6-5.6-2.6 c-2.5,0-4.3,0.9-5.6,2.6c-1.3,1.7-1.9,4-1.9,6.9v5.7c0,2.9,0.6,5.2,1.9,6.9c1.3,1.7,3.1,2.6,5.6,2.6c2.5,0,4.3-0.9,5.6-2.6 c1.3-1.7,1.9-4,1.9-6.9V36.8z" class="st4"/></g></svg>