<svg xmlns="http://www.w3.org/2000/svg" xmlns:xlink="http://www.w3.org/1999/xlink" id="Layer_1" x="0" y="0" version="1.1" viewBox="174 -26.6 372.6 65.6" xml:space="preserve" style="enable-background:new 174 -26.6 372.6 65.6"><style type="text/css">.st0{fill:#1b95d2}.st0,.st1{display:none}.st2{display:inline;fill:#86bc44}.st3{fill:#10ceaa}.st4{fill:#fff}</style><rect id="XMLID_81_" width="55.6" height="53.3" x="180.6" y="-19.9" class="st0"/><g id="XMLID_1_" class="st1"><polygon id="XMLID_23_" points="180.6 33.2 182.5 30.8 185.8 30.8 183.8 33.4 180.6 33.4" class="st2"/><rect id="XMLID_24_" width="6.5" height="2.6" x="193.7" y="16.7" class="st2"/><polygon id="XMLID_25_" points="193.7 16.7 195.7 18.3 185.8 30.8 182.5 30.8" class="st2"/><polygon id="XMLID_26_" points="208.4 30.8 208.4 33.4 183.8 33.4 185.8 30.8" class="st2"/><circle id="XMLID_27_" cx="200.2" cy="18" r="1.3" class="st2"/><polygon id="XMLID_32_" points="236.2 33.2 234.3 30.8 231.1 30.8 233.1 33.4 236.2 33.4" class="st2"/><rect id="XMLID_33_" width="6.5" height="2.6" x="216.6" y="16.7" class="st2"/><polygon id="XMLID_34_" points="223.2 16.7 221.1 18.3 231.1 30.8 234.3 30.8" class="st2"/><polygon id="XMLID_35_" points="208.4 30.8 208.4 33.4 233.1 33.4 231.1 30.8" class="st2"/><circle id="XMLID_36_" cx="216.6" cy="18" r="1.3" class="st2"/></g><g id="XMLID_82_"><circle id="XMLID_28_" cx="205.4" cy="-2.4" r="6.4" class="st3"/><path id="XMLID_29_" d="M205.4,32.8c3.7-4.8,12.4-19.8,14.8-26c1-2.6,2.1-5.2,2.4-8c0.9-8.7-4.9-16.4-13.2-18.4 c-0.7-0.2-1.3-0.3-2-0.5c-1.2,0-2.3,0-3.5,0c-0.3,0.1-0.5,0.2-0.8,0.3c-10.6,1.6-17.3,12.9-13.7,22.7 C193.2,13.8,199.4,23.2,205.4,32.8z M196.8-2.6c0.2-5,4.2-8.7,9.2-8.6c4.5,0.2,8.4,4.4,8.2,9c-0.2,4.9-4.2,8.7-8.8,8.6 C200.4,6.4,196.6,2.2,196.8-2.6z" class="st3"/></g><g id="XMLID_125_"><path id="XMLID_126_" d="M275.5-3.1c0,3.1-0.6,5.7-1.6,7.8c-1.1,2.1-2.6,3.8-4.4,5.1s-4,2.2-6.4,2.7s-5,0.8-7.7,0.8 c-0.9,0-2,0-3.2-0.1c-1.2-0.1-2.2-0.1-3-0.2v18.4c0,0.4-0.1,0.7-0.4,1s-0.6,0.4-0.9,0.4h-7c-0.4,0-0.7-0.1-1-0.4 c-0.3-0.3-0.4-0.6-0.4-1v-48.3c0-0.7,0.2-1.2,0.6-1.5c0.4-0.3,0.9-0.5,1.6-0.6c1.8-0.3,3.9-0.5,6.3-0.7c2.4-0.2,4.9-0.2,7.4-0.2 c2.6,0,5.2,0.3,7.6,0.8s4.6,1.4,6.4,2.7c1.8,1.3,3.3,2.9,4.4,5c1.1,2.1,1.6,4.7,1.6,7.7v0.6H275.5z M265.8-3.7c0-3-0.9-5.1-2.6-6.3 c-1.7-1.2-4.4-1.9-7.9-1.9c-0.4,0-0.9,0-1.4,0c-0.6,0-1.2,0-1.8,0.1c-0.6,0-1.2,0-1.7,0.1c-0.5,0-1,0.1-1.3,0.1V5.2 c0.3,0,0.7,0,1.3,0s1.2,0,1.8,0.1c0.6,0,1.2,0,1.8,0.1c0.6,0,1,0,1.3,0c3.8,0,6.5-0.7,8.1-2.1c1.6-1.4,2.4-3.5,2.4-6.3 C265.8-3,265.8-3.7,265.8-3.7z" class="st4"/><path id="XMLID_131_" d="M292.1,31.3c0,0.4-0.1,0.7-0.4,1c-0.3,0.3-0.6,0.5-0.9,0.5h-6.5c-0.4,0-0.7-0.2-1-0.5 c-0.3-0.3-0.4-0.6-0.4-1v-50.5c0-0.4,0.1-0.7,0.4-1c0.3-0.3,0.6-0.4,1-0.4h6.5c0.4,0,0.7,0.1,0.9,0.4c0.3,0.3,0.4,0.6,0.4,1V31.3z" class="st4"/><path id="XMLID_133_" d="M333,29.6c0,0.5-0.1,0.9-0.4,1.2c-0.2,0.3-0.7,0.5-1.5,0.7c-2.2,0.6-4.5,1-7,1.3 s-4.8,0.5-7.1,0.5c-5.7,0-9.9-1.6-12.6-4.7c-2.8-3.1-4.1-7.4-4.1-12.9v-5.4c0-5.5,1.4-9.8,4.1-12.9c2.8-3.1,7-4.7,12.6-4.7 c2.2,0,4.6,0.2,7.1,0.5s4.8,0.8,7,1.3c0.8,0.2,1.3,0.5,1.5,0.7c0.2,0.3,0.4,0.6,0.4,1.2V29.6z M323.7,0.8c-0.7-0.1-1.6-0.3-2.9-0.4 s-2.6-0.1-3.8-0.1c-1.5,0-2.7,0.3-3.7,0.8s-1.8,1.2-2.3,2.1c-0.6,0.9-0.9,1.9-1.2,3.2c-0.2,1.2-0.3,2.5-0.3,4v5.4 c0,1.4,0.1,2.8,0.3,4c0.2,1.2,0.6,2.3,1.2,3.2c0.6,0.9,1.3,1.6,2.3,2.1s2.2,0.8,3.7,0.8c1.3,0,2.5,0,3.8-0.1 c1.3-0.1,2.3-0.2,2.9-0.4V0.8z" class="st4"/><path id="XMLID_136_" d="M367.2,30.6c0,0.6-0.1,1-0.3,1.2c-0.2,0.3-0.6,0.5-1.2,0.6c-0.8,0.2-2,0.4-3.5,0.6 c-1.5,0.2-3.4,0.3-5.5,0.3c-2.3,0-4.4-0.4-6.3-1.1c-1.9-0.7-3.6-1.8-5-3.2s-2.5-3.2-3.4-5.3c-0.8-2.1-1.2-4.6-1.2-7.5V9.7 c0-2.9,0.4-5.3,1.2-7.5c0.8-2.1,1.9-3.9,3.4-5.3c1.4-1.4,3.1-2.5,5-3.2s4.1-1.1,6.3-1.1c2.1,0,4,0.1,5.5,0.3 c1.5,0.2,2.7,0.4,3.5,0.6c0.6,0.1,1,0.3,1.2,0.6c0.2,0.3,0.3,0.7,0.3,1.2v4.6c0,0.4-0.1,0.6-0.4,0.8c-0.2,0.2-0.5,0.2-0.9,0.2h-0.2 c-0.7-0.1-1.4-0.2-2-0.2c-0.6-0.1-1.2-0.1-1.9-0.1s-1.4,0-2.2-0.1c-0.8,0-1.8,0-2.9,0c-0.8,0-1.7,0.1-2.5,0.4 c-0.8,0.3-1.5,0.8-2.1,1.4c-0.6,0.7-1.1,1.6-1.5,2.8c-0.4,1.2-0.6,2.7-0.6,4.5v6.5c0,1.8,0.2,3.3,0.6,4.5c0.4,1.2,0.9,2.1,1.5,2.8 c0.6,0.7,1.3,1.2,2.1,1.4c0.8,0.3,1.6,0.4,2.5,0.4c1.1,0,2.1,0,2.9,0s1.6,0,2.2-0.1c0.7,0,1.3-0.1,1.9-0.1s1.3-0.2,2-0.2h0.2 c0.4,0,0.7,0.1,0.9,0.2c0.2,0.2,0.4,0.4,0.4,0.8V30.6z" class="st4"/><path id="XMLID_138_" d="M407.2,14.5c0,1.2-0.5,1.8-1.4,1.8h-22.9v0.1c0,1,0.1,2.1,0.4,3.1c0.2,1.1,0.7,2,1.3,2.9 s1.5,1.6,2.6,2.1s2.5,0.8,4.2,0.8c2.6,0,5-0.1,7.3-0.2c2.3-0.2,4.1-0.3,5.6-0.5h0.2c0.4,0,0.7,0.1,0.9,0.2c0.2,0.2,0.4,0.4,0.4,0.8 v4.6c0,0.6-0.1,1-0.2,1.3c-0.2,0.3-0.6,0.5-1.2,0.6c-1.1,0.2-2.2,0.4-3.2,0.6c-1,0.1-2,0.3-3,0.4c-1,0.1-2.1,0.2-3.3,0.2 c-1.2,0-2.6,0.1-4.2,0.1c-1.8,0-3.7-0.3-5.6-0.8c-2-0.5-3.8-1.5-5.5-2.8s-3.1-3.1-4.1-5.4c-1.1-2.3-1.6-5.1-1.6-8.6v-5.2 c0-2.7,0.4-5.2,1.1-7.4s1.8-4.1,3.3-5.6c1.4-1.5,3.2-2.7,5.3-3.6c2.1-0.8,4.5-1.3,7.2-1.3c2.7,0,5.1,0.4,7.2,1.3 c2.1,0.9,3.8,2.1,5.2,3.7c1.4,1.6,2.5,3.5,3.2,5.6c0.7,2.2,1.1,4.6,1.1,7.2v4H407.2z M398,9.4c0-2.8-0.7-4.9-2.1-6.4 s-3.2-2.2-5.4-2.2s-4,0.7-5.5,2.2c-1.4,1.5-2.1,3.6-2.1,6.4v0.3h15V9.4H398z" class="st4"/><path id="XMLID_141_" d="M449.2-7.1c0,2.9-0.7,5.5-2.2,7.5c-1.5,2.1-3.7,4.1-6.6,6.1l-6.3,4.2 c-3.3,2.2-5.8,4.3-7.5,6.3s-2.5,4.5-2.5,7.4v0.3h23.1c0.4,0,0.7,0.1,1,0.4c0.3,0.2,0.4,0.5,0.4,0.9v5.4c0,0.4-0.1,0.7-0.4,1 s-0.6,0.4-1,0.4h-29.7c-0.4,0-0.7-0.1-1-0.4c-0.3-0.3-0.4-0.6-0.4-1v-6.9c0-1.9,0.3-3.8,0.8-5.6c0.6-1.8,1.3-3.5,2.3-5.1 s2.1-3,3.4-4.3s2.7-2.5,4.1-3.4l6.9-4.6c1.4-0.9,2.5-1.7,3.3-2.3c0.8-0.7,1.5-1.3,2-1.9s0.8-1.2,0.9-1.9c0.2-0.7,0.2-1.5,0.2-2.5 c0-1.9-0.6-3.3-1.9-4c-1.3-0.8-3.4-1.2-6.3-1.2c-1,0-2.1,0-3.3,0.1c-1.2,0.1-2.4,0.2-3.6,0.2c-1.2,0.1-2.5,0.2-3.7,0.3 s-2.3,0.2-3.4,0.4h-0.1c-0.4,0-0.7-0.1-0.9-0.4c-0.2-0.3-0.4-0.6-0.4-1v-4.1c0-0.4,0.1-0.7,0.4-0.9c0.3-0.2,0.6-0.4,0.9-0.5 c0.9-0.2,1.9-0.5,3.1-0.7s2.4-0.4,3.6-0.6c1.2-0.2,2.5-0.3,3.8-0.4c1.3-0.1,2.5-0.1,3.6-0.1c6.1,0,10.5,1.1,13.2,3.2 S449.2-11.4,449.2-7.1z" class="st4"/><path id="XMLID_143_" d="M494,30.5c0,0.9-0.4,1.5-1.3,1.7c-1.8,0.4-3.9,0.7-6.2,0.9c-2.4,0.2-5.4,0.3-9,0.3 c-1.9,0-4-0.4-6.1-1.1c-2.2-0.7-4.2-1.9-6.1-3.5s-3.5-3.8-4.7-6.6s-1.9-6.2-1.9-10.4V1.7c0-4.2,0.6-7.6,1.8-10.4 c1.2-2.8,2.7-5,4.6-6.6c1.9-1.7,3.9-2.8,6.1-3.5s4.4-1.1,6.5-1.1c1.7,0,3.3,0,4.9,0.1s3,0.2,4.3,0.4c1.3,0.1,2.5,0.3,3.5,0.4 c1,0.1,1.8,0.3,2.4,0.4c0.9,0.2,1.3,0.7,1.3,1.5v4.7c0,0.5-0.1,0.9-0.3,1.1c-0.2,0.2-0.6,0.4-1.1,0.4h-0.2 c-1.6-0.1-3.7-0.3-6.1-0.4c-2.4-0.1-5.3-0.2-8.7-0.2c-1.2,0-2.3,0.2-3.4,0.7c-1.1,0.4-2.1,1.2-3,2.2s-1.6,2.4-2.1,4.1 s-0.8,3.8-0.8,6.3v10.1c0,2.5,0.3,4.6,0.8,6.2c0.5,1.7,1.2,3,2.1,4.1c0.9,1,1.8,1.8,2.9,2.2s2.1,0.7,3.2,0.7c1.3,0,2.5,0,3.6,0 s2.2-0.1,3.3-0.2v-18c0-0.4,0.1-0.7,0.4-1s0.6-0.4,1-0.4h7c0.4,0,0.7,0.1,1,0.4c0.3,0.3,0.4,0.6,0.4,1L494,30.5L494,30.5z" class="st4"/><path id="XMLID_147_" d="M536.2,15.9c0,2.5-0.4,4.9-1.1,7c-0.7,2.1-1.8,4-3.2,5.5s-3.1,2.8-5.2,3.6 c-2.1,0.9-4.5,1.3-7.3,1.3c-2.8,0-5.2-0.4-7.3-1.3c-2.1-0.9-3.8-2.1-5.2-3.6s-2.5-3.4-3.2-5.5s-1.1-4.5-1.1-7v-5.7 c0-2.5,0.4-4.9,1.1-7s1.8-4,3.2-5.5s3.1-2.8,5.2-3.6c2.1-0.9,4.5-1.3,7.3-1.3c2.8,0,5.2,0.4,7.3,1.3c2.1,0.9,3.8,2.1,5.2,3.6 c1.4,1.5,2.5,3.4,3.2,5.5c0.7,2.1,1.1,4.5,1.1,7V15.9z M526.9,10.2c0-2.9-0.6-5.2-1.9-6.9c-1.3-1.7-3.1-2.6-5.6-2.6 s-4.3,0.9-5.6,2.6s-1.9,4-1.9,6.9v5.7c0,2.9,0.6,5.2,1.9,6.9s3.1,2.6,5.6,2.6s4.3-0.9,5.6-2.6c1.3-1.7,1.9-4,1.9-6.9V10.2z" class="st4"/></g></svg>